<svg xmlns="http://www.w3.org/2000/svg" viewBox="0 0 639.5 221.6" fill="currentColor"><path d="M317.1 50.1h-39.5V157h-9.7V50.1h-39.4v-8.2h88.6v8.2zM353.6 158.7a36.7 36.7 0 0 1-33.4-20.4c-3.3-6.7-5-14-4.9-21.5v-3.4a50.2 50.2 0 0 1 4.8-22.2c3-6.3 7.5-11.7 13.3-15.5 5.5-3.7 12-5.7 18.5-5.7 10.4 0 18.6 3.5 24.7 10.6s9.1 16.8 9.1 29.1v5.3h-61.1v1.8a36 36 0 0 0 8.3 24.2 26.6 26.6 0 0 0 21 9.7 30 30 0 0 0 13.4-2.8c4.2-2 7.8-5.1 10.6-8.9l5.9 4.5a34.1 34.1 0 0 1-30.2 15.2zM351.9 78a23.8 23.8 0 0 0-18 7.8 36.2 36.2 0 0 0-8.9 21h51.3v-1c-.3-8.2-2.6-14.9-7-20.1S359.1 78 351.9 78zM413.7 149.1h55.6v8H402v-7l51.9-70.4h-50.3v-8.2h62.2v7.1l-52.1 70.5zM482.9 113a50.2 50.2 0 0 1 4.8-22.2A36 36 0 0 1 521 69.9c11.4 0 20.6 4 27.7 12s10.6 18.6 10.6 31.8v2c.1 7.7-1.5 15.3-4.8 22.3a36 36 0 0 1-33.3 20.7c-11.3 0-20.6-4-27.7-12s-10.6-18.6-10.6-31.8V113zm9.5 2.6c0 10.2 2.7 18.6 7.9 25.2s12.2 9.8 20.8 9.8c8 .2 15.8-3.4 20.8-9.8a40.1 40.1 0 0 0 7.9-26V113c0-6.2-1.2-12.3-3.6-18-2.1-5-5.7-9.4-10.2-12.6a26 26 0 0 0-15-4.5c-8-.1-15.8 3.5-20.7 9.9a40.4 40.4 0 0 0-7.9 27.8zM630.1 135.3c.1-4.5-2-8.7-5.7-11.3a44 44 0 0 0-17.1-6.7c-6-1.1-12-3-17.7-5.5a23.3 23.3 0 0 1-9.3-7.6c-2.1-3.2-3.2-7-3.1-10.9 0-6.8 2.8-12.3 8.5-16.7s12.9-6.6 21.7-6.6c9.5 0 17.2 2.4 23 7.1a22.7 22.7 0 0 1 8.7 18.5h-9.5c0-5-2.3-9.6-6.3-12.5a25 25 0 0 0-15.9-5c-6.2 0-11.2 1.4-15 4.1a12.9 12.9 0 0 0-5.7 10.8c-.2 3.9 1.6 7.6 4.7 10 3.1 2.2 8.9 4.4 17.2 6.4s14.5 4 18.7 6.2c3.7 1.9 6.9 4.6 9.2 8a22 22 0 0 1-5.7 28.6 37.4 37.4 0 0 1-22.8 6.5c-10 0-18.1-2.4-24.2-7.2s-9.3-10.9-9.3-18.3h9.5c.2 5.2 2.8 10 7 13 4.3 3 10 4.5 17.1 4.5 6.6 0 11.9-1.5 16-4.3 4-3 6-6.7 6-11zM158.6 163.5c-2.3-40.7-53.5-59.2-58.4-61.1-.2-.1-.2-.3-.1-.5l52.8-53v-5.7c0-1-.8-1.7-1.7-1.7H53.9V0L18 7.5v5.4h2s8.8 0 8.8 8.8v19.7H1a1 1 0 0 0-1 1v12.5h28.9v67.9c0 21.3 13.7 36.1 37.7 34.1 5-.5 9.7-2.2 13.8-5a6.3 6.3 0 0 0 2.9-5.3v-6.7c-7.8 5.2-14.4 4.9-14.4 4.9-15.2 0-14.9-19.3-14.9-19.3V54.9h70l-50.4 50.8-.2 12c0 .1 0 .3.2.3h.1c46.2 7.8 58.7 37.7 58.7 46.4 0 0 5 42.3-37.3 45.2 0 0-27.7 1.2-32.6-9.9-.2-.4 0-.8.3-1h.1c4.7-2 7.8-6.6 7.7-11.7 0-8.2-5-14.9-15.5-14.9-8.5 0-15.5 6.7-15.5 14.9 0 0-4 35.6 55.4 34.6 67.8-1.2 63.6-58.1 63.6-58.1z"/></svg>
