<svg xmlns="http://www.w3.org/2000/svg" viewBox="0 0 158.7 221.6" fill="currentColor"><path d="M158.6 163.5c-2.3-40.7-53.5-59.2-58.4-61.1-.2-.1-.2-.3-.1-.5l52.8-53v-5.7c0-1-.8-1.7-1.7-1.7H53.9V0L18 7.5v5.4h2s8.8 0 8.8 8.8v19.7H1a1 1 0 0 0-1 1v12.5h28.9v67.9c0 21.3 13.7 36.1 37.7 34.1 5-.5 9.7-2.2 13.8-5a6.3 6.3 0 0 0 2.9-5.3v-6.7c-7.8 5.2-14.4 4.9-14.4 4.9-15.2 0-14.9-19.3-14.9-19.3V54.9h70l-50.4 50.8-.2 12c0 .1 0 .3.2.3h.1c46.2 7.8 58.7 37.7 58.7 46.4 0 0 5 42.3-37.3 45.2 0 0-27.7 1.2-32.6-9.9-.2-.4 0-.8.3-1h.1c4.7-2 7.8-6.6 7.7-11.7 0-8.2-5-14.9-15.5-14.9-8.5 0-15.5 6.7-15.5 14.9 0 0-4 35.6 55.4 34.6 67.8-1.2 63.6-58.1 63.6-58.1z"/></svg>
