<svg xmlns="http://www.w3.org/2000/svg" viewBox="0 0 48 48"><path d="M6 23.5h8.5v10h19v-10H42V39q0 1.2-.9 2.1-.9.9-2.1.9H9q-1.2 0-2.1-.9Q6 40.2 6 39Zm11.5 7v-7h13v7ZM6 20.5V9q0-1.2.9-2.1Q7.8 6 9 6h30q1.2 0 2.1.9.9.9.9 2.1v11.5Zm10-5q.7 0 1-.4.5-.5.5-1.1 0-.7-.4-1-.5-.5-1.1-.5-.7 0-1 .4-.5.4-.5 1.1 0 .7.4 1 .5.5 1.1.5Zm8 0q.7 0 1-.4.5-.5.5-1.1 0-.7-.4-1-.5-.5-1.1-.5-.7 0-1 .4-.5.4-.5 1.1 0 .7.4 1 .5.5 1.1.5Zm8 0q.7 0 1-.4.5-.5.5-1.1 0-.7-.4-1-.5-.5-1.1-.5-.7 0-1 .4-.5.4-.5 1.1 0 .7.4 1 .5.5 1.1.5Z" fill="#fff"/></svg>