<svg xmlns="http://www.w3.org/2000/svg" viewBox="0 0 48 48"><path d="M7.5 22.5q-.7 0-1-.4Q6 21.6 6 21V7.5q0-.7.4-1Q6.8 6 7.5 6H21q.7 0 1 .4.5.4.5 1.1V21q0 .7-.4 1-.5.5-1.1.5Zm19.5 0q-.7 0-1-.4-.5-.5-.5-1.1V7.5q0-.7.4-1Q26.4 6 27 6h13.5q.7 0 1 .4.5.4.5 1.1V21q0 .7-.4 1-.4.5-1.1.5ZM7.5 42q-.7 0-1-.4Q6 41 6 40.5V27q0-.7.4-1 .4-.5 1.1-.5H21q.7 0 1 .4.5.5.5 1.1v13.5q0 .7-.4 1-.5.5-1.1.5Zm26.3 0q-.7 0-1.1-.4-.5-.4-.5-1.1v-5.3H27q-.5 0-1-.4-.4-.4-.4-1 0-.7.4-1.1.5-.5 1.1-.5h5.3V27q0-.5.4-1 .4-.4 1-.4.7 0 1.1.4.5.5.5 1.1v5.3h5.3q.5 0 1 .4.4.4.4 1 0 .7-.4 1.1-.4.5-1.1.5h-5.3v5.3q0 .5-.4 1-.4.4-1 .4Z" fill="currentColor"/></svg>
