<svg xmlns="http://www.w3.org/2000/svg" viewBox="0 0 48 48"><path d="M15 35.5q1 0 1.8-.7.7-.7.7-1.8 0-1-.7-1.8-.8-.7-1.8-.7t-1.8.7q-.7.8-.7 1.8t.7 1.8q.8.7 1.8.7Zm0-18q1 0 1.8-.7.7-.8.7-1.8t-.7-1.8q-.8-.7-1.8-.7t-1.8.7q-.7.8-.7 1.8t.7 1.8q.8.7 1.8.7Zm9 9q1 0 1.8-.7.7-.8.7-1.8t-.7-1.8q-.8-.7-1.8-.7t-1.8.7q-.7.8-.7 1.8t.7 1.8q.8.7 1.8.7Zm9 9q1 0 1.8-.7.7-.7.7-1.8 0-1-.7-1.8-.8-.7-1.8-.7t-1.8.7q-.7.8-.7 1.8t.7 1.8q.8.7 1.8.7Zm0-18q1 0 1.8-.7.7-.8.7-1.8t-.7-1.8q-.8-.7-1.8-.7t-1.8.7q-.7.8-.7 1.8t.7 1.8q.8.7 1.8.7ZM9 42q-1.2 0-2.1-.9Q6 40.2 6 39V9q0-1.2.9-2.1Q7.8 6 9 6h30q1.2 0 2.1.9.9.9.9 2.1v30q0 1.2-.9 2.1-.9.9-2.1.9Z" fill="#888"/></svg>
