<svg xmlns="http://www.w3.org/2000/svg" viewBox="0 0 48 48"><path d="M9.6 44q-.7 0-1-.4Q8 43 8 42.5q0-.7.4-1Q9 41 9.6 41h28.8q.7 0 1 .4.5.4.5 1.1 0 .7-.4 1-.5.5-1.1.5Zm0-37q-.7 0-1-.4Q8 6.2 8 5.5q0-.7.4-1Q9 4 9.6 4h28.8q.7 0 1 .4.5.4.5 1.1 0 .7-.4 1-.5.5-1.1.5Zm14.5 31.9-.6-.1-.4-.3-5.6-5.6q-.3-.4-.3-1t.4-1.1q.5-.5 1-.5t1.1.5l2.9 2.9V14.3l-2.9 2.9q-.4.4-1 .4t-1.1-.5q-.4-.4-.4-1t.4-1.1l5.5-5.5.4-.3.6-.1.6.1.5.4 5.5 5.5q.4.4.4 1t-.4 1q-.5.5-1.1.5t-1.1-.5l-2.9-2.8v19.4l2.9-2.9q.4-.4 1-.4.7 0 1.2.4.4.4.4 1t-.4 1.1l-5.5 5.5-.5.4-.6.1Z" fill="#fff"/></svg>