<svg xmlns="http://www.w3.org/2000/svg" viewBox="0 0 48 48"><path d="M7 6c-.8 0-1.5.3-2 .9-.7.6-1 1.3-1 2.1v22c0 .8.3 1.5 1 2.1.6.6 1.3.9 2 .9h14.1v5h-4.3v3h14.5v-3h-4.2v-5h14c.8 0 1.5-.3 2.1-.9.6-.6.9-1.3.9-2.1V9c0-.8-.3-1.5-.9-2.1-.6-.6-1.3-.9-2.1-.9Zm17.5 4.9c-.7 1.3-1 2.7-.9 4.2.1 1.6.4 3 1.1 4.3a9.1 9.1 0 0 0 3 3.2 8 8 0 0 0 4.4 1.4 9 9 0 0 1-3.2 2.9 7.5 7.5 0 0 1-4.3 1.3c-1.2 0-2.3-.2-3.4-.6-1.1-.5-2-1.1-2.8-1.9-.7-.8-1.3-1.7-1.8-2.7a10.3 10.3 0 0 1 0-6.8c.5-1 1.1-1.9 1.8-2.8.8-.8 1.7-1.4 2.8-1.8 1-.5 2.1-.7 3.3-.7z" fill="#888"/></svg>
