<svg xmlns="http://www.w3.org/2000/svg" viewBox="0 0 48 48"><path d="M26.6 44q-1.2 0-1.7-.8-.5-.7-.1-1.8L32 21.9q.3-.8 1.1-1.4t1.6-.5q.9 0 1.7.5.8.6 1.1 1.4l7.5 19.3q.5 1.1 0 2-.6.8-1.9.8-.6 0-1-.3t-.7-1l-1.7-5h-9.6l-1.9 5.1q-.2.5-.7.9-.5.3-1 .3Zm4.7-9.8h7.1l-3.5-9.7h-.1ZM14.4 17.1l1.7 2.5 2 2.5q2.2-2.3 3.7-4.8t2.6-5.3H4q-.8 0-1.4-.6Q2 10.8 2 10q0-.8.6-1.4Q3 8 4 8h12V6q0-.8.6-1.4Q17 4 18 4q.8 0 1.4.6.6.6.6 1.4v2h12q.8 0 1.4.6.6.6.6 1.4 0 .8-.6 1.4-.5.6-1.4.6h-3.6q-1.1 3.5-3 6.8Q23.6 22 21 25l4.8 5-1.4 4L18 28l-8.7 8.7q-.5.5-1.3.5t-1.4-.6q-.5-.6-.5-1.4t.6-1.4l8.8-8.8-2.5-3-2.1-3.3q-.6-1.1-.1-1.9.5-.8 1.8-.8.6 0 1 .3.6.3.9.8Z" fill="#888"/></svg>
