<svg xmlns="http://www.w3.org/2000/svg" viewBox="0 0 48 48"><path d="M6 43.6V4.3h.1l.4.2 2 2q.3.3.5.3t.5-.3l2-2 .5-.2.5.2 2 2q.3.3.5.3t.5-.3l2-2 .5-.2.5.2 2 2q.3.3.5.3t.5-.3l2-2 .5-.2.5.2 2 2q.3.3.5.3t.5-.3l2-2 .5-.2.5.2 2 2q.3.3.5.3t.5-.3l2-2 .5-.2.5.2 2 2q.3.3.5.3t.5-.3l2-2 .4-.2h.1v39.3h-.1q-.1.1-.4-.2l-2-2-.5-.2-.5.2-2 2q-.3.3-.5.3t-.5-.3l-2-2-.5-.2-.5.2-2 2q-.3.3-.5.3t-.5-.3l-2-2-.5-.2-.5.2-2 2q-.3.3-.5.3t-.5-.3l-2-2-.5-.2-.5.2-2 2q-.3.3-.5.3t-.5-.3l-2-2-.5-.2-.5.2-2 2q-.3.3-.5.3t-.5-.3l-2-2-.5-.2-.5.2-2 2q-.3.3-.4.2H6Zm7.3-10.4h21.5q.7 0 1.1-.4.5-.4.5-1.1 0-.6-.5-1-.4-.5-1-.5H13.4q-.7 0-1.1.4-.4.5-.4 1.1 0 .7.4 1 .4.5 1 .5Zm0-7.7h21.5q.7 0 1.1-.4.5-.4.5-1.1 0-.6-.5-1-.4-.5-1-.5H13.4q-.7 0-1.1.4-.4.5-.4 1.1 0 .7.4 1 .4.5 1 .5Zm0-7.7h21.5q.7 0 1.1-.5.5-.4.5-1 0-.7-.5-1.1-.4-.4-1-.4H13.4q-.7 0-1.1.4-.4.4-.4 1 0 .7.4 1.1.4.5 1 .5Z" fill="#888"/></svg>
