<svg xmlns="http://www.w3.org/2000/svg" viewBox="0 0 48 48"><path d="M7.5 37.9q-.7 0-1-.4Q6 37 6 36.4q0-.7.4-1 .4-.5 1.1-.5h9.3q.7 0 1.1.4.5.4.5 1.1 0 .7-.5 1-.4.5-1 .5Zm0-24.8q-.7 0-1-.4-.5-.4-.5-1.1 0-.7.4-1 .4-.5 1.1-.5h17.6q.7 0 1.1.4.4.5.4 1.1 0 .7-.4 1-.4.5-1 .5ZM22.9 42q-.7 0-1.1-.4-.4-.4-.4-1.1v-8.3q0-.6.4-1t1-.4q.7 0 1.1.4.5.4.5 1V35h16.1q.7 0 1 .4.5.5.5 1.1 0 .7-.4 1-.4.5-1.1.5H24.4v2.6q0 .7-.5 1-.4.5-1 .5Zm-6-12.4q-.7 0-1.1-.4-.4-.4-.4-1.1v-2.6H7.5q-.7 0-1-.4Q6 24.6 6 24q0-.7.4-1 .4-.5 1.1-.5h7.8v-2.7q0-.7.5-1 .4-.5 1-.5.7 0 1.1.4.5.5.5 1.1v8.3q0 .7-.5 1-.4.5-1 .5Zm6-4.1q-.7 0-1.1-.4-.4-.5-.4-1.1 0-.7.4-1 .4-.5 1-.5h17.7q.7 0 1 .4.5.5.5 1.1 0 .7-.4 1-.4.5-1.1.5Zm8.3-8.3q-.7 0-1.1-.4-.4-.4-.4-1V7.4q0-.7.4-1 .4-.5 1-.5.7 0 1.1.4.4.4.4 1.1v2.6h7.9q.7 0 1 .4.5.4.5 1.1 0 .7-.4 1-.4.5-1.1.5h-7.8v2.6q0 .7-.5 1.1-.4.4-1 .4Z" fill="#888"/></svg>
