<svg xmlns="http://www.w3.org/2000/svg" viewBox="0 0 48 48"><path d="M24 38.4q.5 0 .9-.5.4-.4.4-1v-1.1q3-.4 4.7-2 1.7-1.7 1.7-4.3 0-2.6-1.4-4.2-1.4-1.5-4.9-2.7-3.1-1-4.3-2-1.2-1.1-1.2-2.8 0-1.5 1.1-2.4 1.1-.8 3.1-.8 1.2 0 2.1.4t1.7 1.4q.3.4.8.5.5.2 1-.1.5-.3.7-.8.2-.6-.2-1-.8-1.2-2-1.9t-2.8-.8V11q0-.5-.4-.9t-1-.4q-.5 0-1 .4-.4.4-.4 1v1.2q-2.5.3-4 1.8t-1.5 3.8q0 2.4 1.3 3.9 1.3 1.4 4.8 2.7 3.5 1.4 4.6 2.4 1.2 1 1.2 2.6t-1.4 2.7-3.3 1.1q-1.6 0-3-.7t-2.1-2.3q-.3-.4-.7-.6-.4-.2-.9-.1-.6.3-.8.8-.3.5.1 1 1 1.7 2.4 2.7t3.2 1.5V37q0 .6.5 1 .4.4 1 .4Zm0 5.6q-4.3 0-7.9-1.5-3.6-1.5-6.3-4.2-2.7-2.7-4.3-6.4Q4 28.3 4 24q0-4.2 1.5-7.8Q7 12.4 9.8 9.7q2.6-2.7 6.3-4.3Q19.7 4 24 4q4.2 0 7.8 1.6 3.7 1.5 6.4 4.2t4.3 6.3Q44 19.8 44 24q0 4.3-1.6 7.9-1.5 3.6-4.2 6.3-2.7 2.7-6.3 4.3Q28.2 44 24 44Z" fill="#888"/></svg>
