<svg xmlns="http://www.w3.org/2000/svg" viewBox="0 0 48 48"><path d="M12.1 35.95q-.65 0-1.07-.42-.43-.43-.43-1.08v-14q0-.6.45-1.02.45-.43 1.05-.43.65 0 1.07.42.43.43.43 1.08v14q0 .6-.45 1.02-.45.43-1.05.43Zm12.1 0q-.65 0-1.07-.42-.43-.43-.43-1.08v-14q0-.6.45-1.02.45-.43 1.05-.43.65 0 1.07.42.43.43.43 1.08v14q0 .6-.45 1.02-.45.43-1.05.43Zm-18.75 6q-.6 0-1.03-.45Q4 41.05 4 40.45q0-.65.42-1.07.43-.43 1.08-.43h37.05q.6 0 1.02.45.43.45.43 1.05 0 .65-.43 1.07-.42.43-1.07.43Zm30.45-6q-.65 0-1.07-.42-.43-.43-.43-1.08v-14q0-.6.45-1.02.45-.43 1.05-.43.65 0 1.07.42.43.43.43 1.08v14q0 .6-.45 1.02-.45.43-1.05.43ZM25.5 2.8l17.4 9.9q.5.3.8.75.3.45.3 1 0 .7-.55 1.12-.55.43-1.25.43H5.8q-.7 0-1.25-.42T4 14.45q0-.55.33-1.02.32-.48.82-.73L22.5 2.8q.7-.4 1.5-.4t1.5.4Z" fill="#fff"/></svg>