<svg xmlns="http://www.w3.org/2000/svg" viewBox="0 0 48 48"><path d="M25.5 18V7.5q0-.7.4-1Q26.4 6 27 6h13.5q.7 0 1 .4.5.4.5 1.1V18q0 .7-.4 1-.4.5-1.1.5H27q-.7 0-1-.4-.5-.5-.5-1.1ZM6 24V7.5q0-.7.4-1Q6.8 6 7.5 6H21q.7 0 1 .4.5.4.5 1.1V24q0 .7-.4 1-.5.5-1.1.5H7.5q-.7 0-1-.4Q6 24.6 6 24Zm19.5 16.5V24q0-.7.4-1 .5-.5 1.1-.5h13.5q.7 0 1 .4.5.5.5 1.1v16.5q0 .7-.4 1-.5.5-1.1.5H27q-.7 0-1-.4-.5-.4-.5-1.1ZM6 40.5V30q0-.7.4-1 .4-.5 1.1-.5H21q.7 0 1 .4.5.5.5 1.1v10.5q0 .7-.4 1-.5.5-1.1.5H7.5q-.7 0-1-.4Q6 41 6 40.5Z" fill="#fff"/></svg>