<svg xmlns="http://www.w3.org/2000/svg" viewBox="0 0 48 48"><path d="M13 40.9q-.5-.5-.5-1t.5-1.2l3.1-3.2q-5.4.4-9.7-3.5T2 22q0-5.8 4-10 4.2-4 10-4h4.5q.7 0 1 .4.5.4.5 1.1 0 .7-.4 1-.5.5-1.1.5H16q-4.5 0-7.8 3.2Q5 17.5 5 22q0 4.7 3.3 7.7t8 2.9l-3.4-3.4q-.5-.4-.5-1T13 27q.5-.5 1-.5t1.1.5l6 5.9.3.5.1.5-.1.6-.3.4-6 6q-.4.4-1 .4t-1-.5ZM29 22q-1.3 0-2.1-.9T26 19v-8q0-1.3.9-2.1T29 8h12q1.3 0 2.1.9T44 11v8q0 1.3-.9 2.1T41 22Zm0-3h12v-8H29Zm0 21q-1.3 0-2.1-.9T26 37v-8q0-1.3.9-2.1T29 26h12q1.3 0 2.1.9T44 29v8q0 1.3-.9 2.1T41 40Z" fill="#fff"/></svg>