<svg xmlns="http://www.w3.org/2000/svg" viewBox="0 0 48 48"><path d="M24 19.3q-.7 0-1-.4-.5-.4-.5-1.1V9.9L19.4 13q-.5.5-1.1.5-.7 0-1.1-.5-.5-.5-.5-1.1 0-.7.5-1.1L23 5l.4-.3.6-.1.6.1.4.4 5.9 5.8q.4.4.4 1 0 .7-.5 1.1-.5.5-1.1.5-.7 0-1.1-.5l-3.1-3.1v7.9q0 .7-.4 1-.5.5-1.1.5Zm0 24.1-.6-.1-.4-.3-6.1-6.1q-.5-.5-.4-1 0-.7.4-1.2.5-.4 1.2-.4.6 0 1 .4l3.4 3.4v-8q0-.6.4-1 .5-.5 1.1-.5.7 0 1 .5.5.4.5 1v8l3.4-3.4q.5-.5 1-.4.7 0 1.2.5.4.4.4 1 0 .7-.5 1.2l-6 6-.4.3-.6.1Zm11-12.6q-.5-.4-.5-1.1 0-.6.5-1.1l3.1-3.1h-7.9q-.6 0-1-.4-.5-.5-.5-1.1 0-.7.4-1 .4-.5 1.1-.5h7.9L35 19.4q-.5-.5-.5-1.1 0-.6.5-1.1.5-.4 1.1-.4.7 0 1.1.4L43 23l.3.5.1.5-.1.6-.3.5-5.8 5.8q-.5.4-1.1.4-.6 0-1.1-.5Zm-24.2 0L5 25.1l-.3-.5-.1-.6.1-.5q.1-.3.4-.5l5.8-5.9q.5-.5 1-.4.7 0 1.1.5.5.4.5 1 0 .7-.5 1.2L10 22.5h8q.6 0 1 .4.5.5.5 1.1 0 .7-.5 1-.4.5-1 .5h-8l3.1 3.1q.5.5.5 1.1 0 .6-.5 1.1-.4.4-1.1.4-.6 0-1.1-.4Z" fill="#fff"/></svg>