<svg xmlns="http://www.w3.org/2000/svg" viewBox="0 0 48 48"><path d="M16 40q-5.8 0-10-4-4-4.1-4-10 0-6.2 4.4-10t9.8-3.6l-3.3-3.2q-.5-.5-.5-1T13 7q.5-.5 1-.5t1.1.5l6 5.9.3.4.1.6-.1.6-.3.5-6 5.9q-.4.4-1 .4t-1-.5q-.5-.4-.5-1t.4-1.1l3.4-3.4q-4.8-.1-8 2.9Q5 21.3 5 26q0 4.5 3.2 7.8Q11.5 37 16 37h4.5q.7 0 1 .4.5.5.5 1.1 0 .7-.4 1-.5.5-1.1.5Zm13 0q-1.3 0-2.1-.9T26 37v-8q0-1.3.9-2.1T29 26h12q1.3 0 2.1.9T44 29v8q0 1.3-.9 2.1T41 40Zm0-3h12v-8H29Zm0-15q-1.3 0-2.1-.9T26 19v-8q0-1.3.9-2.1T29 8h12q1.3 0 2.1.9T44 11v8q0 1.3-.9 2.1T41 22Z" fill="#fff"/></svg>